<?xml version="1.0" encoding="utf-8"?>
<!-- Generator: Adobe Illustrator 25.4.1, SVG Export Plug-In . SVG Version: 6.00 Build 0)  -->
<svg version="1.1" id="Layer_1" xmlns="http://www.w3.org/2000/svg" xmlns:xlink="http://www.w3.org/1999/xlink" x="0px" y="0px"
	 viewBox="0 0 500 500" enable-background="new 0 0 500 500" xml:space="preserve">
<path fill="#231F20" d="M231.43,471.26h9.86l9.78-223.06c0.17-0.06,0.34-0.14,0.51-0.2c-10.07,0-20.14,0-30.21,0L231.43,471.26z"/>
<path fill="#F8951D" d="M344.71,143.24c0-59.33-48.1-107.43-107.43-107.43c-59.33,0-107.43,48.1-107.43,107.43
	c0,50.57,34.95,92.97,82.01,104.39V248c16.4,0,32.81,0,49.21,0C308.95,237.17,344.71,194.39,344.71,143.24z M237.29,199.82
	c-31.25,0-56.58-25.33-56.58-56.58s25.33-56.58,56.58-56.58s56.58,25.33,56.58,56.58S268.54,199.82,237.29,199.82z"/>
<path fill="#F8951D" d="M237,83c-32.58,0-59,26.42-59,59s26.42,59,59,59s59-26.42,59-59S269.58,83,237,83z M237,171.29
	c-16.17,0-29.29-13.11-29.29-29.29s13.11-29.29,29.29-29.29s29.29,13.11,29.29,29.29S253.17,171.29,237,171.29z"/>
</svg>
